<?xml version="1.0" encoding="utf-8"?><svg version="1.1" fill="gray" id="Layer_1" xmlns="http://www.w3.org/2000/svg" xmlns:xlink="http://www.w3.org/1999/xlink" x="0px" y="0px" viewBox="0 0 122.88 122.55" style="enable-background:new 0 0 122.88 122.55" xml:space="preserve"><style type="text/css">.st0{fill-rule:evenodd;clip-rule:evenodd;}</style><g><path class="st0" d="M4.52,0h116.05c1.27,0,2.32,1.04,2.32,2.32v7.86c0,1.27-1.04,2.32-2.32,2.32h-1.68v60.31 c0,0.92-0.38,1.77-0.99,2.38l0,0c-0.61,0.61-1.46,0.99-2.39,0.99H91.63v4.49h-4.92v6.97c-1.45-2.42-3.25-4.29-5.23-5.59 c-2.36-1.55-4.97-2.32-7.6-2.31c-2.65,0.01-5.25,0.82-7.6,2.4c-2.53,1.71-4.74,4.36-6.26,7.91h-8.64c-0.16-0.06-0.33-0.12-0.5-0.18 c-1.46-0.51-2.98-0.76-4.44-0.76c-1.46,0-2.97,0.25-4.44,0.76c-0.17,0.06-0.33,0.12-0.5,0.18h-3.15v-9.38h-4.92v-4.49H9.58 c-0.93,0-1.78-0.38-2.39-0.99c-0.06-0.06-0.11-0.12-0.16-0.18c-0.52-0.59-0.83-1.37-0.83-2.2V12.5H4.52 c-1.27,0-2.32-1.04-2.32-2.32V2.32C2.2,1.04,3.24,0,4.52,0L4.52,0z M66.15,108.12c-10.06,0-3.44,0.79-2.07-10.15 c2.05-16.36,17.6-16.36,19.9,0c1.47,10.52,7.78,10.15-2.07,10.15h-3.93c-0.02,2.68-0.43,4.05,2.35,5.55 c1.42,0.77,4.06,1.34,6.31,2.23c3.44-2.94,9.55-1,10.18-6.39c0.1-0.82-1.84-3.95-2.28-5.45c-0.95-1.52-1.29-3.92-0.25-5.52 c0.41-0.64,0.24-2.96,0.24-3.83c0-8.71,15.27-8.72,15.27,0c0,1.1-0.25,3.13,0.34,3.99c1,1.45,0.48,4.02-0.36,5.36 c-0.54,1.58-2.6,4.56-2.42,5.45c1.48,7.54,11.76-0.53,11.76,13.04c-39.7,0-79.41,0-119.11,0c0-13.79,13.02-6.16,14.02-14.61 c0.11-0.92-2.06-4.43-2.56-6.11c-1.06-1.7-1.45-4.4-0.28-6.19c0.46-0.71,0.27-3.31,0.27-4.3c0-9.77,17.11-9.77,17.11,0 c0,1.24-0.28,3.51,0.39,4.48c1.12,1.62,0.54,4.5-0.4,6.01c-0.61,1.77-2.91,5.11-2.72,6.11c0.72,3.65,9.82,6.13,12.99,7.47 c1.79-0.92,3.23-2.01,3.38-3.27c0.08-0.66-1.47-3.15-1.82-4.35c-0.76-1.21-1.03-3.13-0.2-4.41c0.33-0.51,0.19-2.36,0.19-3.06 c0-6.95,12.19-6.96,12.19,0c0,0.88-0.2,2.5,0.27,3.19c0.8,1.16,0.39,3.21-0.29,4.28c-0.43,1.26-2.07,3.64-1.93,4.35 c0.9,4.56,5.83,1.97,8.16,5.16c2.2-1.73,6.58-2.21,9.25-3.81c2.44-1.46,2.03-2.93,2.01-5.36L66.15,108.12L66.15,108.12 L66.15,108.12z M30.65,59.82h20.61v-5.86h-0.99c-0.52,0-0.95-0.43-0.95-0.95v-2.37c0-1.82,1.49-3.32,3.32-3.32h0.92 c1.82,0,3.32,1.49,3.32,3.32v2.36c0,0.52-0.43,0.95-0.95,0.95h-0.99v5.86h15v-5.86h-0.99c-0.52,0-0.95-0.43-0.95-0.95v-2.37 c0-1.82,1.49-3.32,3.32-3.32h0.92c1.82,0,3.32,1.49,3.32,3.32v2.36c0,0.52-0.43,0.95-0.95,0.95h-0.99v5.86h20.82 c0.86,0,1.56,0.7,1.56,1.56v9.53c0,0.47-0.21,0.9-0.55,1.19h19.35V12.76H10.29V72.1h19.35c-0.34-0.29-0.55-0.71-0.55-1.19v-9.53 C29.09,60.52,29.79,59.82,30.65,59.82L30.65,59.82z"/></g></svg>