<svg xmlns="http://www.w3.org/2000/svg" fill="#4D4D4D" shape-rendering="geometricPrecision" text-rendering="geometricPrecision" image-rendering="optimizeQuality" fill-rule="evenodd" clip-rule="evenodd" viewBox="0 0 390 511.815"><path d="M24.983 197.869h16.918v-39.203c0-43.387 17.107-82.959 44.667-111.698C114.365 18 152.726 0 194.998 0c42.259 0 80.652 17.981 108.41 46.968 27.58 28.739 44.692 68.292 44.692 111.698v39.203h16.917c13.738 0 24.983 11.245 24.983 24.984v263.978c0 13.739-11.245 24.984-24.983 24.984H24.983C11.226 511.815 0 500.57 0 486.831V222.853c-.013-13.739 11.226-24.984 24.983-24.984zm149.509 173.905l-26.968 70.594h94.923l-24.966-71.573c15.852-8.15 26.688-24.67 26.688-43.719 0-27.169-22.015-49.169-49.184-49.169-27.153 0-49.153 22-49.153 49.169-.016 19.826 11.737 36.905 28.66 44.698zM89.187 197.869h211.602v-39.203c0-30.858-12.024-58.823-31.376-79.005-19.147-19.964-45.49-32.368-74.428-32.368-28.925 0-55.288 12.404-74.422 32.368-19.37 20.182-31.376 48.147-31.376 79.005v39.203z"/></svg>