<?xml version="1.0" encoding="utf-8"?><svg version="1.1" id="Layer_1" fill="#4D4D4D" xmlns="http://www.w3.org/2000/svg" xmlns:xlink="http://www.w3.org/1999/xlink" x="0px" y="0px" viewBox="0 0 100.67 122.88" style="enable-background:new 0 0 100.67 122.88" xml:space="preserve"><style type="text/css">.st0{fill-rule:evenodd;clip-rule:evenodd;}</style><g><path class="st0" d="M52.49,3.26c8.56-5.91,9.2,5.79,17.6-1.52v11.93c-8.01,7.21-9.74-4.44-17.6,1.48V3.26L52.49,3.26z M100.67,122.85V53.02H74.15V36.11L51.28,21.37V3.04l-0.08,0c0.48-0.28,0.8-0.81,0.8-1.41c0-0.9-0.73-1.63-1.63-1.63 c-0.9,0-1.63,0.73-1.63,1.63c0,0.6,0.32,1.12,0.8,1.41h-0.08v18.3L26.54,36.11v16.91H0v69.86 C33.56,122.88,67.11,122.85,100.67,122.85L100.67,122.85z M48.61,42.65c0-0.72,0.59-1.31,1.31-1.31c0.72,0,1.31,0.59,1.31,1.31 v5.07h3.76c0.72,0,1.31,0.59,1.31,1.31c0,0.72-0.59,1.31-1.31,1.31h-5.07c-0.72,0-1.31-0.59-1.31-1.31V42.65L48.61,42.65z M50.33,38.61c4.93,0,8.93,4,8.93,8.93c0,4.93-4,8.93-8.93,8.93c-4.93,0-8.93-4-8.93-8.93C41.41,42.61,45.4,38.61,50.33,38.61 L50.33,38.61z M36.61,72.57h27.44v5.16H36.61V72.57L36.61,72.57z M36.61,83.97h27.44v5.16H36.61V83.97L36.61,83.97z M36.61,95.38 h27.44v5.16H36.61V95.38L36.61,95.38z M36.61,106.78h27.44v5.16H36.61V106.78L36.61,106.78z M10.81,72.57h13.27v5.16H10.81V72.57 L10.81,72.57z M76.58,72.57h13.27v5.16H76.58V72.57L76.58,72.57z M10.81,83.97h13.27v5.16H10.81V83.97L10.81,83.97z M76.58,83.97 h13.27v5.16H76.58V83.97L76.58,83.97z M10.81,95.38h13.27v5.16H10.81V95.38L10.81,95.38z M76.58,95.38h13.27v5.16H76.58V95.38 L76.58,95.38z M10.81,106.78h13.27v5.16H10.81V106.78L10.81,106.78z M76.58,106.78h13.27v5.16H76.58V106.78L76.58,106.78z"/></g></svg>