<?xml version="1.0" encoding="utf-8"?><svg version="1.1" fill="white" id="Layer_1" xmlns="http://www.w3.org/2000/svg" xmlns:xlink="http://www.w3.org/1999/xlink" x="0px" y="0px" viewBox="0 0 96.17 122.88" style="enable-background:new 0 0 96.17 122.88" xml:space="preserve"><g><path d="M62.74,110.31l21.48-22.58H62.74V110.31L62.74,110.31z M48.08,14.31c1.3,0,2.57,0.13,3.8,0.37 c1.26,0.25,2.48,0.62,3.65,1.1c1.19,0.49,2.32,1.1,3.38,1.8c1.06,0.71,2.05,1.52,2.95,2.43c0.9,0.9,1.72,1.89,2.43,2.96 c0.7,1.05,1.31,2.18,1.8,3.37c0.48,1.17,0.86,2.39,1.11,3.65c0.24,1.23,0.37,2.5,0.37,3.8c0,1.3-0.13,2.57-0.37,3.8 c-0.25,1.26-0.62,2.48-1.11,3.65l-0.01,0.01c-0.49,1.18-1.09,2.31-1.8,3.36c-0.71,1.07-1.53,2.06-2.43,2.96 c-0.9,0.9-1.89,1.71-2.95,2.42c-1.06,0.7-2.19,1.31-3.37,1.8l-0.01,0c-1.16,0.48-2.38,0.85-3.63,1.1c-1.23,0.24-2.5,0.37-3.8,0.37 c-1.3,0-2.57-0.13-3.8-0.37c-1.26-0.25-2.48-0.62-3.65-1.11c-1.19-0.49-2.32-1.1-3.38-1.8c-1.06-0.71-2.06-1.52-2.95-2.42 c-0.9-0.9-1.71-1.89-2.43-2.96c-0.7-1.05-1.31-2.18-1.8-3.37c-0.48-1.16-0.86-2.39-1.11-3.65c-0.24-1.23-0.37-2.5-0.37-3.8 c0-1.3,0.13-2.57,0.37-3.8c0.25-1.26,0.62-2.48,1.11-3.65c0.49-1.19,1.1-2.32,1.8-3.37c0.71-1.06,1.53-2.05,2.43-2.96 c0.9-0.9,1.89-1.72,2.95-2.43c1.06-0.71,2.19-1.31,3.37-1.8l0.01,0c1.16-0.48,2.38-0.85,3.63-1.1 C45.52,14.44,46.79,14.31,48.08,14.31L48.08,14.31z M39.16,36.24c-0.17-0.19-0.31-0.4-0.4-0.62c-0.1-0.23-0.15-0.47-0.16-0.72 c-0.01-0.27,0.03-0.55,0.12-0.82c0.09-0.25,0.23-0.5,0.43-0.71l0.1-0.1c0.19-0.18,0.4-0.32,0.63-0.42c0.23-0.1,0.48-0.16,0.73-0.17 h0.01c0.27-0.01,0.55,0.03,0.81,0.12c0.25,0.09,0.49,0.23,0.7,0.42l0,0c0.71,0.68,1.47,1.36,2.23,2.03l0.93,0.84l8.65-9.05 c0.19-0.2,0.42-0.35,0.66-0.46c0.25-0.11,0.52-0.17,0.8-0.18h0.04c0.26,0,0.53,0.05,0.77,0.14c0.24,0.09,0.48,0.24,0.68,0.43 l0.04,0.04c0.2,0.19,0.35,0.42,0.46,0.66c0.11,0.25,0.17,0.53,0.18,0.8v0.04c0,0.26-0.05,0.53-0.14,0.77 c-0.1,0.25-0.24,0.48-0.43,0.68L46.93,40.51c-0.19,0.2-0.42,0.36-0.66,0.47c-0.25,0.11-0.52,0.18-0.79,0.19h-0.01 c-0.27,0.01-0.54-0.03-0.8-0.12c-0.25-0.09-0.49-0.23-0.7-0.41C42.46,39.22,40.55,37.71,39.16,36.24L39.16,36.24z M58.86,23.02 c-0.71-0.71-1.48-1.34-2.32-1.9c-0.82-0.55-1.71-1.03-2.63-1.41c-0.91-0.37-1.86-0.67-2.85-0.86c-0.96-0.19-1.96-0.29-2.98-0.29 c-1.02,0-2.02,0.1-2.98,0.29c-0.99,0.2-1.94,0.49-2.85,0.86c-0.92,0.38-1.8,0.85-2.63,1.41c-0.83,0.56-1.61,1.2-2.32,1.9 c-0.7,0.71-1.34,1.48-1.9,2.32c-0.55,0.82-1.03,1.71-1.41,2.63c-0.37,0.91-0.67,1.86-0.86,2.85c-0.19,0.96-0.29,1.96-0.29,2.98 c0,1.02,0.1,2.02,0.29,2.98c0.2,0.99,0.49,1.95,0.86,2.85c0.38,0.92,0.85,1.8,1.4,2.63c0.56,0.83,1.2,1.61,1.9,2.32 c0.71,0.71,1.48,1.34,2.32,1.9c0.82,0.55,1.71,1.03,2.63,1.41c0.91,0.38,1.86,0.67,2.85,0.86c0.96,0.19,1.96,0.29,2.98,0.29 c1.02,0,2.02-0.1,2.98-0.29c0.99-0.19,1.94-0.49,2.85-0.86l0.01,0c0.92-0.38,1.79-0.85,2.62-1.4c0.83-0.56,1.61-1.2,2.32-1.9 c0.71-0.71,1.35-1.48,1.9-2.32c0.55-0.82,1.02-1.7,1.4-2.63c0.37-0.91,0.67-1.86,0.86-2.85c0.19-0.96,0.29-1.96,0.29-2.98 c0-1.02-0.1-2.02-0.29-2.98c-0.2-0.99-0.49-1.95-0.86-2.85c-0.38-0.92-0.85-1.8-1.41-2.63C60.2,24.5,59.56,23.73,58.86,23.02 L58.86,23.02z M18.93,90.03h19.23v5.53H18.93V90.03L18.93,90.03z M18.93,75.98h27.29v5.53H18.93V75.98L18.93,75.98z M18.93,61.94 h58.3v5.53h-58.3V61.94L18.93,61.94z M96.17,84.85c0,1.63-1.1,3.04-2.6,3.45l-31.64,33.27c-0.66,0.81-1.66,1.32-2.76,1.32H6.43 c-1.79,0-3.39-0.72-4.55-1.88C0.72,119.84,0,118.24,0,116.45V6.43c0-1.79,0.72-3.39,1.88-4.55C3.04,0.72,4.67,0,6.43,0h83.31 c1.76,0,3.39,0.72,4.55,1.88c1.16,1.16,1.88,2.76,1.88,4.55V84.85L96.17,84.85z M88.99,80.55V7.18H7.18v108.55h48.38V84.16 c0-1.98,1.6-3.61,3.61-3.61H88.99L88.99,80.55z"/></g></svg>